<svg xmlns="http://www.w3.org/2000/svg" width="1384" height="1516" viewBox="0 0 1384 1516" role="img"><title>GitTree</title><path fill="#7DB6FF" fill-rule="evenodd" d="M606.8 1507.0C587.4 1488.9 577.9 1472.6 573.0 1449.1C566.4 1417.8 577.9 1385.5 606.9 1354.2C624.8 1334.8 633.5 1322.9 640.6 1308.3C654.3 1279.7 653.3 1246.0 637.8 1214.8C633.5 1206.0 630.4 1207.7 626.5 1221.0C622.0 1236.3 605.5 1258.7 583.2 1279.8C566.3 1295.8 558.6 1305.5 551.1 1320.6C545.9 1331.0 538.0 1353.0 538.0 1356.9C538.0 1358.2 537.1 1362.7 536.1 1366.9C533.8 1375.7 531.1 1389.4 528.0 1407.0C526.9 1413.9 525.4 1422.2 524.9 1425.5C523.5 1433.1 522.5 1435.0 519.6 1435.0C516.3 1435.0 515.2 1433.3 512.9 1424.9C504.4 1394.1 504.1 1356.7 512.1 1328.2C513.3 1324.2 513.9 1320.3 513.6 1319.5C510.7 1311.7 478.8 1333.7 467.6 1351.2C456.2 1369.0 453.9 1381.7 456.3 1413.9C456.5 1417.9 454.1 1420.2 451.2 1418.4C449.0 1417.0 441.6 1403.2 439.6 1396.6C438.7 1393.8 437.5 1387.1 436.9 1381.7C432.2 1341.3 455.3 1307.2 504.5 1281.4C546.9 1259.3 567.2 1236.7 574.8 1203.0C578.5 1187.1 577.0 1165.1 571.4 1153.5C568.5 1147.3 567.6 1148.1 558.6 1163.8C533.3 1208.2 500.6 1238.8 449.0 1266.4C414.8 1284.8 400.6 1298.0 388.5 1322.5C378.3 1343.4 375.6 1362.3 380.4 1381.0C386.6 1405.1 389.1 1409.7 420.8 1455.1C430.7 1469.3 432.0 1472.1 429.9 1474.6C427.4 1477.7 423.7 1475.7 400.5 1458.4C364.8 1431.8 345.0 1402.2 341.0 1369.0C339.8 1359.3 340.1 1343.0 341.5 1335.5C343.1 1327.4 338.7 1327.4 316.0 1335.6C278.6 1349.1 257.3 1371.5 244.5 1411.0C241.4 1420.6 240.5 1422.0 237.9 1422.0C234.3 1422.0 233.5 1418.3 233.6 1402.0C233.7 1379.7 237.6 1366.9 250.0 1348.0C265.1 1325.0 284.7 1310.7 321.8 1295.6C348.4 1284.8 361.5 1276.8 379.8 1260.4C392.1 1249.4 405.5 1239.0 425.5 1224.9C450.7 1207.1 482.0 1170.7 482.0 1159.0C482.0 1156.0 480.7 1156.4 466.1 1163.6C451.5 1170.8 439.2 1175.8 422.5 1181.5C403.4 1187.9 389.4 1194.6 375.0 1204.2C367.6 1209.2 355.2 1217.5 347.5 1222.7C335.1 1231.0 321.2 1238.5 301.5 1247.5C264.9 1264.2 241.8 1282.6 224.3 1309.2C216.9 1320.4 207.5 1339.7 203.5 1351.7C200.7 1360.4 199.2 1362.4 196.3 1361.8C189.6 1360.5 190.5 1329.0 198.0 1306.2C210.1 1268.9 233.0 1242.9 284.0 1208.2C301.8 1196.1 301.5 1194.6 281.5 1195.4C214.7 1198.1 161.8 1222.4 123.8 1267.8C107.0 1287.8 104.0 1279.6 117.3 1250.0C122.3 1239.0 132.0 1225.8 143.9 1213.9C176.3 1181.4 223.3 1163.3 304.0 1152.0C312.5 1150.8 323.1 1149.1 327.5 1148.3C331.9 1147.4 337.8 1146.4 340.7 1145.9C346.2 1145.1 355.3 1143.1 368.5 1139.8C456.1 1117.8 515.8 1059.3 538.9 973.0C548.2 938.5 549.5 927.2 549.5 883.5C549.5 843.7 549.2 840.8 543.3 817.5C525.9 748.5 482.3 706.2 414.5 692.4C401.9 689.9 400.0 689.7 358.4 689.3C307.6 688.7 309.7 688.3 303.9 697.6C283.7 729.6 239.7 734.4 214.2 707.5C179.6 671.1 204.8 612.0 255.0 612.0C275.8 612.0 293.4 622.5 304.6 641.6C306.8 645.4 309.8 649.1 311.1 649.7C312.9 650.7 325.4 651.0 361.5 651.0C419.0 651.0 434.7 652.4 459.6 659.5C473.2 663.4 473.1 659.8 459.1 646.3C446.3 633.9 425.0 620.6 406.0 613.2C399.4 610.6 381.5 606.0 378.2 606.0C373.2 606.0 354.1 600.9 345.0 597.1C318.0 585.9 300.0 571.9 280.6 547.3C268.5 531.8 257.7 524.5 243.4 522.1C222.2 518.6 209.7 515.0 197.6 508.9C147.4 483.9 124.9 425.9 137.4 353.6C139.4 342.1 140.2 341.6 154.9 342.3C197.2 344.6 236.7 360.4 259.6 384.2C283.2 408.8 291.9 431.9 292.0 470.0C292.0 495.5 295.0 506.5 306.2 522.7C324.7 549.5 353.6 565.5 390.5 569.6C393.8 569.9 402.6 571.8 410.0 573.8C427.5 578.4 432.0 578.9 432.0 576.3C432.0 574.6 429.5 562.9 427.0 552.5C426.5 550.3 426.0 534.2 426.0 516.7L426.0 484.9L423.6 482.7C422.4 481.5 418.6 479.0 415.2 477.1C387.3 461.6 378.7 423.5 396.9 395.9C425.4 352.7 490.6 367.5 499.6 419.2C503.8 443.4 492.4 465.7 468.8 479.3C461.7 483.4 461.8 482.9 462.2 512.9C462.6 536.1 462.9 540.6 464.9 548.5C473.0 581.1 487.7 601.8 523.0 630.0C547.0 649.1 573.1 677.7 589.3 702.2C598.2 715.9 598.5 715.9 608.8 705.2C654.5 657.8 667.6 588.5 641.0 534.8C636.6 525.9 626.4 511.7 615.0 498.4C598.3 478.9 587.3 460.7 581.2 442.5C578.3 434.0 574.0 414.8 574.0 410.5C574.0 400.4 566.1 373.4 559.9 362.2C551.0 346.1 543.5 342.0 504.0 332.0C459.2 320.5 427.5 296.0 409.1 258.5C400.5 241.1 396.9 229.6 392.3 205.0C389.7 191.4 389.7 147.6 392.3 130.5C393.3 123.9 394.5 115.6 395.0 112.1C395.5 108.5 396.6 104.9 397.5 104.1C400.8 100.8 425.0 103.1 453.5 109.2C551.2 130.3 604.0 198.7 590.7 287.0C589.8 292.8 588.6 298.9 588.0 300.5C587.5 302.1 586.1 308.0 585.1 313.4C582.9 324.7 583.2 326.5 589.4 338.4C599.4 357.6 610.1 394.2 610.0 409.2C610.0 413.5 614.8 427.7 619.8 437.9C627.3 453.2 636.0 463.7 657.4 483.2C668.9 493.8 669.4 493.7 671.0 482.0C674.3 458.7 675.4 384.3 672.6 380.5C671.8 379.4 667.5 376.1 662.9 373.0C631.6 352.3 626.6 310.0 652.4 284.5C688.8 248.6 748.2 274.1 747.9 325.5C747.8 345.5 736.3 365.0 718.8 374.8C715.7 376.5 712.6 378.9 712.0 380.0C708.1 387.2 710.8 485.5 715.1 490.6C717.0 493.0 717.7 492.5 733.2 477.2C761.7 449.2 769.9 434.4 775.4 400.4C779.7 374.1 784.6 359.1 797.0 333.7L801.3 324.9L799.5 316.2C798.6 311.4 797.0 304.1 796.0 300.0C786.0 259.3 792.4 215.4 812.8 184.0C843.3 136.9 894.8 110.5 970.5 103.0C987.1 101.3 988.2 102.1 989.9 117.0C990.5 122.2 991.6 129.4 992.2 133.0C994.1 143.8 993.7 194.8 991.7 204.0C990.8 208.1 990.0 212.6 990.0 214.0C990.0 216.9 986.9 228.2 983.2 239.0C966.8 286.8 931.4 319.2 882.5 331.4C850.1 339.4 840.8 343.1 832.5 351.5C822.0 362.0 813.0 386.1 810.0 411.5C806.5 442.3 794.9 467.6 772.1 494.4C753.2 516.5 745.9 527.6 738.7 545.5C727.0 574.4 726.3 608.0 736.7 641.5C743.0 661.8 757.7 686.3 774.6 704.8C785.1 716.3 785.7 716.2 794.5 702.4C809.9 678.3 832.3 654.2 864.2 627.7C898.0 599.5 910.0 582.3 918.7 550.0C921.0 541.2 921.3 538.4 921.7 513.2C922.3 481.6 922.7 483.3 912.3 477.1C869.2 452.0 877.1 386.6 924.8 372.9C961.2 362.5 997.0 389.8 997.0 428.0C997.0 449.7 987.0 466.3 966.8 478.1C963.1 480.3 959.6 482.9 959.0 484.0C958.4 485.1 958.0 497.6 958.0 516.4C958.0 547.7 957.2 555.4 952.1 572.8C950.2 579.1 952.3 580.2 960.1 577.5C967.9 574.7 987.3 570.2 994.0 569.6C1023.4 566.8 1047.8 555.3 1067.2 535.2C1086.8 514.9 1091.9 501.4 1092.0 470.5C1092.1 424.1 1107.8 392.5 1142.0 369.5C1165.6 353.6 1201.8 342.6 1230.7 342.5C1244.3 342.5 1244.5 342.6 1246.5 353.6C1254.7 397.3 1248.0 442.0 1228.6 471.9C1212.0 497.6 1187.7 512.6 1150.8 520.0C1125.1 525.1 1117.4 529.8 1102.0 549.0C1082.5 573.5 1061.6 589.0 1034.8 598.6C1026.4 601.7 1008.8 606.0 1004.6 606.0C997.3 606.0 975.3 613.4 960.0 620.9C941.4 630.1 914.0 653.2 914.0 659.6C914.0 661.5 918.4 661.4 926.3 659.4C929.7 658.5 935.2 657.1 938.5 656.3C954.2 652.3 973.5 651.0 1023.0 651.0C1058.9 651.0 1071.1 650.7 1073.0 649.7C1074.4 649.0 1077.3 645.1 1079.7 640.9C1101.7 601.6 1159.3 602.7 1179.4 642.8C1192.6 669.0 1183.7 701.9 1159.5 716.5C1132.0 733.0 1097.2 724.7 1080.1 697.5C1077.3 693.0 1075.2 690.9 1072.9 690.1C1068.9 688.7 1005.1 688.6 987.0 690.0C921.1 694.9 866.5 737.0 846.2 798.5C836.2 828.5 834.5 841.4 834.5 884.5C834.5 926.3 835.7 936.7 844.7 971.0C866.1 1053.1 920.3 1110.9 998.5 1135.0C1011.6 1139.1 1040.3 1146.0 1044.0 1146.0C1045.4 1146.0 1050.8 1146.9 1056.0 1147.9C1061.2 1149.0 1072.2 1150.8 1080.5 1152.0C1190.7 1167.3 1251.3 1202.7 1272.4 1264.2C1275.4 1272.9 1275.6 1275.3 1273.5 1277.0C1271.3 1278.8 1268.5 1277.4 1264.4 1272.2C1235.3 1236.4 1194.0 1211.0 1149.0 1201.0C1128.9 1196.6 1090.9 1193.5 1087.0 1196.0C1084.4 1197.6 1086.9 1200.0 1103.6 1211.5C1153.8 1246.2 1175.9 1272.0 1186.6 1308.6C1197.0 1344.5 1191.1 1380.8 1179.9 1349.0C1165.5 1307.9 1136.0 1274.6 1096.5 1254.6C1091.5 1252.1 1080.1 1246.5 1071.0 1242.1C1049.8 1231.9 1041.4 1226.9 1020.0 1211.6C998.0 1195.8 985.5 1189.5 958.0 1180.3C944.3 1175.7 922.1 1166.2 914.3 1161.6C902.2 1154.5 899.4 1155.9 904.6 1166.3C914.7 1186.2 936.6 1209.6 962.5 1228.0C982.3 1242.0 988.9 1247.2 1001.0 1258.1C1020.7 1275.9 1032.9 1283.4 1061.1 1295.5C1105.9 1314.6 1126.7 1331.2 1140.0 1358.5C1148.1 1375.3 1152.3 1397.3 1150.3 1412.9C1148.7 1425.9 1144.0 1424.7 1139.5 1410.3C1127.8 1372.8 1105.0 1349.0 1068.0 1335.6C1042.1 1326.3 1041.3 1326.4 1043.2 1341.3C1047.5 1375.3 1034.5 1410.2 1007.4 1437.5C995.3 1449.7 968.9 1470.2 959.5 1474.7C955.7 1476.5 953.0 1475.4 953.0 1471.9C953.0 1470.0 963.4 1454.3 977.9 1434.1C992.4 1413.9 998.9 1400.5 1003.6 1380.6C1010.8 1350.6 997.6 1313.4 971.9 1291.1C965.7 1285.7 943.2 1270.0 941.6 1270.0C940.6 1270.0 909.8 1252.3 903.5 1248.0C870.4 1225.7 841.3 1193.7 823.6 1160.5C815.7 1145.7 813.5 1146.4 809.1 1165.3C802.6 1192.8 812.0 1225.4 833.1 1248.4C844.2 1260.6 853.0 1266.7 886.8 1285.9C918.3 1303.8 935.0 1321.4 943.5 1345.9C951.0 1367.2 947.7 1398.1 936.2 1414.5C930.4 1422.9 925.5 1419.4 928.1 1408.8C930.0 1401.4 929.5 1387.1 927.0 1376.7C921.0 1350.9 905.9 1332.5 880.9 1320.5C870.8 1315.7 869.2 1317.2 872.4 1328.6C877.7 1347.2 879.3 1383.4 875.7 1403.5C871.5 1426.7 868.7 1435.0 865.0 1435.0C862.1 1435.0 860.3 1431.4 859.0 1423.5C844.6 1333.5 836.8 1314.2 801.1 1280.1C773.5 1253.8 767.0 1244.4 755.9 1215.1C752.0 1204.7 750.2 1205.4 743.7 1220.3C733.9 1242.8 731.2 1268.0 736.5 1288.3C742.3 1310.8 752.6 1327.8 774.3 1350.9C812.4 1391.3 822.3 1430.0 804.7 1469.5C794.9 1491.5 772.9 1516.0 763.0 1516.0C758.6 1516.0 758.2 1514.7 761.5 1509.5C773.9 1489.6 782.0 1465.1 782.0 1447.7C782.0 1432.7 775.3 1413.8 765.2 1400.5C758.4 1391.6 754.1 1390.9 754.0 1398.8C754.0 1404.3 749.0 1426.9 745.8 1436.0C742.0 1446.7 735.4 1459.9 724.6 1478.4C719.9 1486.3 715.5 1494.4 714.6 1496.3C713.8 1498.3 712.0 1500.6 710.6 1501.5C702.9 1506.6 703.2 1492.6 711.5 1459.0C721.0 1420.9 721.9 1393.6 714.8 1367.2C711.3 1354.2 694.7 1319.5 692.0 1319.5C690.4 1319.5 676.8 1345.0 672.7 1356.0C666.1 1373.3 663.0 1396.4 664.9 1413.5C665.5 1419.0 666.0 1425.0 666.0 1426.9C666.0 1428.7 666.9 1434.1 668.0 1438.9C669.1 1443.6 670.9 1451.8 672.1 1457.0C673.3 1462.2 675.1 1470.0 676.2 1474.4C678.7 1484.9 679.8 1500.9 678.0 1502.0C675.6 1503.5 672.3 1500.9 668.8 1494.6C666.9 1491.3 661.8 1482.4 657.5 1475.0C640.4 1445.5 634.3 1428.7 630.4 1399.9C629.6 1393.4 628.7 1392.3 625.6 1393.8C620.2 1396.2 610.7 1411.8 605.9 1426.0C598.0 1449.3 604.2 1480.3 622.4 1509.3C625.8 1514.7 625.5 1516.0 620.8 1516.0C616.7 1516.0 615.9 1515.5 606.8 1507.0ZM700.5 1216.6C702.0 1205.6 710.2 1185.7 721.2 1166.3C722.7 1163.6 724.2 1160.8 724.6 1160.0C725.1 1159.2 726.7 1156.7 728.2 1154.5C729.8 1152.3 731.8 1149.4 732.8 1148.0C733.7 1146.6 740.5 1137.9 747.8 1128.6C768.4 1102.6 771.4 1098.3 779.9 1081.3C784.0 1073.0 786.3 1067.4 788.2 1061.0C788.7 1059.1 789.8 1055.2 790.6 1052.5C795.4 1036.2 795.8 998.7 791.3 982.2C790.5 979.1 789.2 974.1 788.5 971.2C787.8 968.2 786.7 965.3 786.1 964.7C785.5 964.1 785.0 962.4 785.0 961.0C785.0 959.6 784.2 956.9 783.2 955.0C782.1 953.1 781.0 950.1 780.6 948.5C780.2 946.9 776.5 938.7 772.5 930.4C768.4 922.1 764.6 914.2 764.0 912.9C763.5 911.6 762.6 909.8 762.1 909.0C761.3 907.5 759.4 903.4 755.1 893.7C754.0 891.1 753.0 888.3 753.0 887.6C753.0 886.9 752.0 883.4 750.9 879.9C749.2 874.9 748.7 870.8 748.6 861.0C748.4 835.9 756.2 825.7 781.5 817.9C783.2 817.4 786.1 815.4 788.0 813.5L791.4 810.0L787.9 806.4C786.1 804.5 783.1 802.3 781.5 801.5C774.4 798.3 769.0 796.2 760.6 793.5C754.1 791.3 751.3 789.9 750.2 788.0C732.4 759.6 698.8 749.2 669.5 763.0C662.5 766.3 643.0 783.6 643.0 786.6C643.0 787.2 642.4 788.3 641.6 788.9C635.7 793.8 631.4 809.2 629.6 832.1C628.7 842.8 627.7 854.6 627.4 858.3C626.9 864.2 625.3 869.6 619.6 884.5C619.0 886.2 617.7 888.8 616.7 890.3C615.8 891.7 615.0 893.6 615.0 894.3C615.0 895.1 614.1 896.5 613.0 897.5C611.9 898.5 611.0 900.1 611.0 901.0C611.0 902.0 610.1 903.9 609.0 905.3C607.9 906.7 607.0 908.1 607.0 908.4C607.0 908.8 605.2 913.0 602.9 917.8C596.3 932.0 596.1 932.3 594.5 937.0C590.6 948.0 587.9 957.4 586.4 965.1C585.6 969.7 584.5 975.5 584.0 978.0C582.9 983.8 582.8 1022.6 584.0 1031.0C585.5 1042.3 587.2 1051.2 590.1 1062.5C595.1 1082.3 595.8 1084.2 599.1 1087.7L602.4 1091.0L605.7 1087.8C609.7 1083.9 609.9 1081.6 606.8 1067.0C602.1 1045.0 603.9 993.8 610.1 973.0C610.7 971.1 611.8 967.2 612.5 964.5C614.7 956.6 617.9 947.9 622.6 937.5C623.3 935.9 624.6 932.9 625.4 931.0C626.2 929.1 628.7 924.4 630.9 920.5C637.8 908.5 638.3 907.6 645.8 892.7C649.7 884.7 653.0 877.2 653.0 876.0C653.0 874.9 653.7 872.3 654.6 870.2C655.7 867.6 656.4 860.8 657.1 846.5C658.8 808.1 664.5 794.7 682.0 787.2C689.9 783.8 706.3 783.6 713.2 786.8C715.8 788.0 718.3 789.0 718.7 789.0C721.9 789.0 730.6 801.9 731.6 807.9C732.2 811.6 729.5 815.0 726.1 815.0C721.3 815.0 700.7 835.9 697.4 844.2C693.8 853.0 692.0 860.3 691.0 869.1C690.0 879.3 687.3 894.4 685.8 898.5C685.3 900.1 684.2 903.5 683.5 906.0C682.8 908.5 681.4 912.3 680.5 914.5C676.1 924.5 672.8 931.0 672.0 931.5C671.4 931.9 671.0 932.9 671.0 933.9C671.0 934.9 670.3 936.3 669.4 937.0C668.6 937.8 667.2 939.7 666.4 941.4C664.3 945.9 662.5 948.7 660.7 950.8C659.7 951.8 659.0 953.0 659.0 953.5C659.0 954.0 658.3 955.2 657.3 956.2C655.4 958.3 653.7 961.1 651.5 965.7C650.7 967.4 649.6 969.1 649.1 969.5C648.5 969.8 646.5 973.3 644.5 977.3C642.6 981.2 640.6 985.2 640.1 986.0C638.1 989.6 635.0 997.2 635.0 998.6C635.0 999.5 634.4 1001.4 633.6 1002.8C629.3 1010.9 626.6 1028.8 626.7 1049.5C626.7 1060.5 627.2 1071.8 627.8 1074.5C628.4 1077.2 629.4 1082.2 630.0 1085.5C631.4 1092.4 635.3 1105.7 637.6 1111.5C642.4 1123.5 643.4 1125.8 645.0 1129.5C646.0 1131.7 647.3 1134.6 647.9 1136.0C648.5 1137.4 649.4 1139.2 649.9 1140.0C650.4 1140.8 651.3 1142.6 651.9 1144.0C652.5 1145.4 653.4 1147.3 654.0 1148.2C656.0 1151.8 657.0 1153.7 661.2 1161.8C663.6 1166.4 666.3 1171.5 667.2 1173.3C668.1 1175.1 669.7 1178.5 670.6 1181.0C671.6 1183.5 672.9 1186.2 673.7 1187.1C674.4 1187.9 675.0 1189.3 675.0 1190.1C675.0 1190.9 675.7 1192.8 676.5 1194.4C678.8 1198.8 682.7 1210.9 683.5 1215.9C684.0 1219.1 685.4 1221.5 688.3 1224.7L692.3 1229.1L696.1 1225.4C699.1 1222.5 700.0 1220.7 700.5 1216.6ZM1078.5 864.0C1046.2 860.4 1033.5 857.2 1018.3 849.0C984.9 831.0 966.2 800.8 962.5 759.0C962.1 754.9 960.9 747.7 959.8 743.0C958.7 738.3 957.6 732.1 957.3 729.3C956.6 722.5 958.6 721.4 968.1 723.7C972.6 724.8 983.1 725.4 1003.0 725.9C1028.2 726.5 1032.5 726.9 1040.0 728.9C1087.6 741.7 1114.7 781.4 1117.5 842.6C1118.5 863.0 1118.2 863.3 1096.1 864.3C1090.3 864.6 1082.3 864.5 1078.5 864.0ZM274.6 863.1C266.3 861.9 265.6 860.3 266.4 843.0C269.1 781.6 297.0 741.0 344.8 728.9C355.8 726.1 357.0 726.0 381.4 726.0C399.3 725.9 408.3 725.5 413.0 724.5C428.6 721.1 429.3 721.9 425.2 739.3C423.5 746.6 421.8 756.3 421.5 761.0C417.4 815.5 379.4 854.5 323.0 862.1C312.7 863.4 281.4 864.1 274.6 863.1ZM708.8 811.8C710.7 809.9 710.3 805.2 708.0 804.0C704.0 801.8 699.7 806.7 702.0 811.0C703.2 813.2 706.9 813.7 708.8 811.8ZM109.5 803.4C83.5 797.9 56.2 784.7 30.5 765.3C17.9 755.8 17.5 754.8 22.3 745.7C31.1 729.0 47.6 709.4 62.3 698.4C83.8 682.1 108.2 675.1 133.7 677.9C156.4 680.3 174.5 690.0 196.8 711.2C212.6 726.3 224.5 732.7 240.3 734.6C252.1 735.9 251.9 739.3 239.2 754.6C216.0 782.6 195.7 795.8 164.0 803.5C149.5 807.0 126.0 807.0 109.5 803.4ZM1218.5 803.1C1188.1 796.1 1164.8 780.3 1141.2 750.7C1131.7 738.7 1132.4 736.2 1145.7 734.1C1162.1 731.6 1171.0 726.8 1186.3 712.1C1205.8 693.4 1215.0 687.7 1236.5 680.6C1243.6 678.2 1261.8 676.9 1272.0 678.0C1305.9 681.7 1336.5 704.3 1359.9 742.9C1362.7 747.5 1365.0 752.2 1365.0 753.4C1365.0 758.5 1337.4 778.3 1313.2 790.4C1283.9 805.1 1248.2 809.9 1218.5 803.1ZM265.7 686.4C275.0 680.6 278.7 670.3 274.6 661.3C271.2 654.1 269.7 652.4 263.8 649.4C250.1 642.4 234.0 652.9 234.0 668.9C234.0 685.3 251.6 695.1 265.7 686.4ZM1140.0 686.6C1153.4 677.8 1153.4 659.3 1140.1 650.4C1129.8 643.6 1115.4 648.4 1109.9 660.5C1101.6 678.6 1123.5 697.5 1140.0 686.6ZM87.5 643.1C49.6 631.4 23.4 602.7 6.7 554.5C0.2 535.6 0.6 533.3 11.3 527.9C29.5 518.7 48.6 512.4 69.0 509.1C118.8 500.9 161.5 521.9 182.1 564.8C184.8 570.4 189.2 579.6 191.9 585.2C195.9 593.6 198.3 597.1 204.9 604.2C209.4 608.9 213.0 613.5 213.0 614.3C213.0 616.5 209.1 619.0 205.9 619.0C197.6 619.0 183.2 623.3 169.1 629.9C138.1 644.6 132.9 646.0 112.1 645.9C98.0 645.9 95.6 645.6 87.5 643.1ZM1246.0 643.1C1235.2 639.9 1234.4 639.6 1215.7 630.5C1205.0 625.3 1199.1 623.2 1189.2 620.8C1170.5 616.4 1169.1 615.4 1174.3 609.9C1185.4 598.2 1189.0 592.5 1198.4 572.0C1217.8 529.5 1245.8 510.1 1291.5 507.4C1313.0 506.1 1346.3 514.5 1372.7 527.9C1383.7 533.4 1384.1 537.0 1376.5 557.5C1359.4 603.8 1335.1 630.3 1298.9 642.4C1284.2 647.4 1261.5 647.6 1246.0 643.1ZM781.6 621.8C780.8 620.5 779.7 616.8 779.1 613.5C778.6 610.2 777.4 603.6 776.6 598.9C767.9 551.0 789.8 515.8 838.5 499.5C866.1 490.3 865.9 490.2 872.1 526.0C875.9 548.6 868.2 576.7 854.0 592.3C841.2 606.2 831.4 611.3 801.0 620.0C796.9 621.2 792.5 622.5 791.2 623.1C787.1 624.7 783.2 624.2 781.6 621.8ZM585.0 620.4C560.2 613.4 554.4 611.1 543.5 603.7C520.9 588.3 509.1 561.5 511.9 531.3C514.0 508.2 517.1 497.0 522.0 495.0C530.2 491.6 564.3 505.1 581.6 518.6C593.6 527.9 602.6 541.6 607.1 557.5C609.9 567.4 610.3 590.5 607.7 600.5C606.9 603.8 605.9 609.2 605.6 612.5C604.4 623.9 601.3 625.0 585.0 620.4ZM453.0 446.7C469.1 438.2 468.6 417.3 451.9 408.7C445.2 405.2 440.0 405.5 433.2 409.7C422.3 416.4 418.9 429.6 425.5 439.2C431.7 448.0 444.1 451.4 453.0 446.7ZM950.5 446.2C961.3 440.3 964.9 428.7 959.3 418.0C952.2 404.5 934.9 402.4 924.9 413.8C909.1 431.7 929.6 457.7 950.5 446.2ZM364.5 392.2C355.4 386.7 345.0 382.5 337.0 381.1C289.8 372.7 265.3 356.9 249.2 324.5C240.5 306.9 237.0 290.2 237.0 266.0C237.0 241.7 242.2 211.7 247.1 207.8C249.7 205.6 263.5 206.0 274.0 208.5C277.0 209.2 281.3 210.1 283.5 210.4C295.4 212.4 317.7 220.5 330.0 227.5C367.0 248.4 385.9 280.3 384.7 320.2C384.5 328.1 383.8 337.2 383.1 340.5C382.4 343.8 380.9 350.6 379.8 355.5C378.2 362.8 377.9 367.4 378.2 379.5C378.3 387.8 378.1 395.1 377.7 395.8C376.2 398.0 372.6 397.0 364.5 392.2ZM1005.7 396.4C1005.4 396.1 1005.4 389.2 1005.7 381.1C1006.2 368.5 1006.0 364.9 1004.2 356.9C1003.1 351.7 1001.6 344.8 1000.9 341.5C998.5 330.2 998.6 306.2 1001.0 295.7C1010.5 255.4 1039.9 227.9 1089.4 213.1C1093.2 211.9 1097.3 211.0 1098.4 211.0C1099.6 211.0 1103.0 210.3 1106.0 209.5C1109.0 208.6 1116.6 207.5 1122.7 207.0C1136.1 205.8 1138.5 206.5 1140.0 211.9C1148.9 245.9 1149.2 283.8 1141.0 309.1C1133.4 332.2 1120.7 349.4 1102.0 361.9C1088.5 370.9 1077.9 374.8 1052.0 380.0C1038.7 382.7 1029.6 386.1 1019.4 392.2C1012.1 396.5 1007.4 398.0 1005.7 396.4ZM703.0 342.6C717.7 332.9 716.4 312.8 700.7 305.4C683.0 297.2 664.5 315.9 672.9 333.4C678.5 344.8 693.0 349.2 703.0 342.6ZM682.9 245.8C673.9 232.1 671.0 229.0 658.2 218.1C631.5 195.6 620.5 180.9 613.4 158.5C609.2 145.5 609.2 121.4 613.3 107.0C623.4 71.5 647.6 36.1 680.0 9.5C691.1 0.4 692.9 0.4 703.3 9.2C737.9 38.3 762.1 73.3 771.2 107.2C774.2 118.7 774.5 146.1 771.6 156.0C769.3 164.1 762.3 179.3 757.9 185.7C753.2 192.6 738.1 207.9 726.3 217.6C714.0 227.8 710.2 232.0 701.6 245.0C692.6 258.6 691.5 258.6 682.9 245.8Z"/></svg>
